<svg width="38" height="38" viewBox="0 0 38 38" fill="none" xmlns="http://www.w3.org/2000/svg">
    <g clip-path="url(#clip0_2_89)">
        <path d="M18.9841 3.16666C10.2442 3.16666 3.15082 10.26 3.15082 19C3.15082 27.74 10.2442 34.8333 18.9841 34.8333C27.7241 34.8333 34.8175 27.74 34.8175 19C34.8175 10.26 27.7241 3.16666 18.9841 3.16666ZM24.7 13.205C26.3942 13.205 27.7558 14.5667 27.7558 16.2608C27.7558 17.955 26.3942 19.3167 24.7 19.3167C23.0058 19.3167 21.6442 17.955 21.6442 16.2608C21.6283 14.5667 23.0058 13.205 24.7 13.205ZM15.2 10.7033C17.2583 10.7033 18.9367 12.3817 18.9367 14.44C18.9367 16.4983 17.2583 18.1767 15.2 18.1767C13.1417 18.1767 11.4633 16.4983 11.4633 14.44C11.4633 12.3658 13.1258 10.7033 15.2 10.7033ZM15.2 25.1592V31.0967C11.4 29.9092 8.39165 26.98 7.06165 23.2433C8.72415 21.47 12.8725 20.5675 15.2 20.5675C16.0392 20.5675 17.1 20.6942 18.2083 20.9158C15.6117 22.2933 15.2 24.1142 15.2 25.1592ZM18.9841 31.6667C18.5567 31.6667 18.145 31.6508 17.7333 31.6033V25.1592C17.7333 22.9108 22.3883 21.7867 24.7 21.7867C26.3942 21.7867 29.3233 22.4042 30.78 23.6075C28.9275 28.31 24.3517 31.6667 18.9841 31.6667Z" fill="#8F8787"/>
    </g>
    <defs>
        <clipPath id="clip0_2_89">
            <rect width="38" height="38" fill="white"/>
        </clipPath>
    </defs>
</svg>
